<?xml version="1.0" encoding="iso-8859-1"?>
<!-- Generator: Adobe Illustrator 26.0.3, SVG Export Plug-In . SVG Version: 6.00 Build 0)  -->
<svg version="1.1" baseProfile="basic" id="Capa_1" xmlns="http://www.w3.org/2000/svg" xmlns:xlink="http://www.w3.org/1999/xlink"
	 x="0px" y="0px" viewBox="0 0 50 50" xml:space="preserve">
<path style="fill:none;stroke:#B22222;stroke-miterlimit:10;" d="M36.3,25.1c0-6.2,0-12.5,0-18.7c0-0.5,0-0.9,0-1.4
	c0-0.3,0-0.5-0.1-0.8c-0.3-1.1-1.1-1.8-2.2-2c-0.2-0.1-0.5-0.1-0.7-0.1c-6,0-12.1,0-18.1,0c-0.1,0-0.1,0-0.2,0c-0.2,0-0.4,0-0.6,0.1
	c-1,0.2-1.8,0.9-2.1,1.8c-0.1,0.4-0.2,0.7-0.2,1.1c0,13.3,0,26.5,0,39.8c0,0.1,0,0.1,0,0.2c0,0.3,0,0.5,0.1,0.8
	c0.3,1.2,1.5,2.1,2.8,2.1c1,0,2,0,3.1,0c5.1,0,10.2,0,15.3,0c0.2,0,0.5,0,0.7-0.1c1.1-0.3,1.8-0.9,2.2-1.9c0.1-0.3,0.1-0.6,0.1-1
	C36.3,38.3,36.3,31.7,36.3,25.1z"/>
<path style="fill:none;stroke:#B22222;stroke-miterlimit:10;" d="M36.3,25.1c0,6.6,0,13.3,0,19.9c0,0.3,0,0.7-0.1,1
	c-0.4,1-1.1,1.7-2.2,1.9C33.8,48,33.5,48,33.3,48c-5.1,0-10.2,0-15.3,0c-1,0-2,0-3.1,0c-1.3,0-2.4-0.9-2.8-2.1
	c-0.1-0.2-0.1-0.5-0.1-0.8c0-0.1,0-0.1,0-0.2c0-13.3,0-26.5,0-39.8c0-0.4,0-0.8,0.2-1.1c0.4-1,1.1-1.6,2.1-1.8c0.2,0,0.4,0,0.6-0.1
	c0.1,0,0.1,0,0.2,0c6,0,12.1,0,18.1,0c0.2,0,0.5,0,0.7,0.1c1.1,0.3,1.9,0.9,2.2,2c0.1,0.2,0.1,0.5,0.1,0.8c0,0.5,0,0.9,0,1.4
	C36.3,12.6,36.3,18.8,36.3,25.1z M14,25.1c0,6.6,0,13.2,0,19.8c0,0.1,0,0.2,0,0.3c0,0.3,0.3,0.7,0.7,0.8c0.1,0,0.3,0,0.4,0
	c5.3,0,10.6,0,15.9,0c0.7,0,1.5,0,2.2,0c0.1,0,0.2,0,0.3,0c0.4-0.1,0.6-0.3,0.7-0.7c0-0.1,0-0.2,0-0.3c0-13.3,0-26.5,0-39.8
	c0-0.1,0-0.1,0-0.2c0-0.5-0.4-0.9-1-0.9c-0.1,0-0.1,0-0.2,0c-6,0-12.1,0-18.1,0c-0.1,0-0.2,0-0.2,0c-0.4,0-0.9,0.4-0.9,0.8
	c0,0.1,0,0.2,0,0.3C14,11.8,14,18.5,14,25.1z"/>
<path style="fill:none;stroke:#B22222;stroke-miterlimit:10;" d="M14,25.1c0-6.6,0-13.2,0-19.8c0-0.1,0-0.2,0-0.3
	c0-0.5,0.4-0.8,0.9-0.8c0.1,0,0.2,0,0.2,0c6,0,12.1,0,18.1,0c0.1,0,0.1,0,0.2,0c0.5,0,0.9,0.4,1,0.9c0,0.1,0,0.1,0,0.2
	c0,13.3,0,26.5,0,39.8c0,0.1,0,0.2,0,0.3c-0.1,0.4-0.3,0.6-0.7,0.7c-0.1,0-0.2,0-0.3,0c-0.7,0-1.5,0-2.2,0c-5.3,0-10.6,0-15.9,0
	c-0.1,0-0.3,0-0.4,0c-0.5-0.1-0.7-0.5-0.7-0.8c0-0.1,0-0.2,0-0.3C14,38.3,14,31.7,14,25.1z M24.2,35c-2,0-3.6,1.7-3.6,3.6
	c0,1.9,1.6,3.6,3.6,3.6c2,0,3.6-1.6,3.6-3.6C27.8,36.6,26.2,35,24.2,35z M24.2,10.2c1.3,0,2.7,0,4,0c1,0,2.1,0,3.1,0
	c0.1,0,0.2,0,0.3,0c0.4-0.1,0.7-0.5,0.7-0.9c0-0.5-0.3-0.8-0.7-1c-0.1,0-0.3,0-0.4,0c-4.7,0-9.3,0-14,0c-0.1,0-0.1,0-0.2,0
	c0,0-0.1,0-0.1,0c-0.4,0.1-0.7,0.4-0.8,0.8c0,0.5,0.2,0.9,0.6,1c0.1,0.1,0.3,0.1,0.4,0.1C19.5,10.2,21.8,10.2,24.2,10.2z M24.2,15.6
	c2.3,0,4.6,0,6.9,0c0.1,0,0.2,0,0.3,0c0.1,0,0.1,0,0.2,0c0.5-0.1,0.7-0.6,0.7-0.9c0-0.5-0.3-0.8-0.7-0.9c-0.1,0-0.3,0-0.4,0
	c-4.6,0-9.3,0-13.9,0c-0.1,0-0.1,0-0.2,0c-0.1,0-0.2,0-0.3,0.1c-0.4,0.1-0.7,0.6-0.6,1.1c0.1,0.4,0.5,0.8,0.9,0.8c0.1,0,0.2,0,0.3,0
	C19.6,15.6,21.9,15.6,24.2,15.6z M24.2,21c2.3,0,4.6,0,6.9,0c0.1,0,0.2,0,0.3,0c0.1,0,0.1,0,0.2,0c0.4-0.1,0.7-0.5,0.7-0.9
	c0-0.4-0.3-0.8-0.7-0.9c-0.1,0-0.3,0-0.4,0c-4.6,0-9.3,0-13.9,0c0,0-0.1,0-0.1,0c-0.1,0-0.2,0-0.3,0.1c-0.4,0.1-0.7,0.6-0.6,1
	c0.1,0.4,0.4,0.8,0.9,0.8c0.1,0,0.2,0,0.3,0C19.6,21,21.9,21,24.2,21z"/>
<path style="fill:none;stroke:#B22222;stroke-miterlimit:10;" d="M24.2,35c2,0,3.6,1.6,3.6,3.6c0,2-1.6,3.6-3.6,3.6
	c-2,0-3.6-1.6-3.6-3.6C20.6,36.7,22.1,35,24.2,35z M24.2,36.9c-0.8,0-1.7,0.6-1.7,1.7c0,1,0.8,1.7,1.7,1.7c0.9,0,1.7-0.7,1.6-1.7
	C25.8,37.6,25,36.9,24.2,36.9z"/>
<path style="fill:none;stroke:#B22222;stroke-miterlimit:10;" d="M24.2,10.2c-2.3,0-4.7,0-7,0c-0.1,0-0.3,0-0.4-0.1
	c-0.4-0.1-0.7-0.5-0.6-1c0-0.4,0.4-0.8,0.8-0.8c0,0,0.1,0,0.1,0c0.1,0,0.1,0,0.2,0c4.7,0,9.3,0,14,0c0.1,0,0.3,0,0.4,0
	c0.4,0.1,0.7,0.5,0.7,1c0,0.4-0.3,0.8-0.7,0.9c-0.1,0-0.2,0-0.3,0c-1,0-2.1,0-3.1,0C26.8,10.2,25.5,10.2,24.2,10.2z"/>
<path style="fill:none;stroke:#B22222;stroke-miterlimit:10;" d="M24.2,15.6c-2.3,0-4.6,0-6.9,0c-0.1,0-0.2,0-0.3,0
	c-0.5,0-0.8-0.4-0.9-0.8c-0.1-0.5,0.2-0.9,0.6-1.1c0.1,0,0.2,0,0.3-0.1c0.1,0,0.1,0,0.2,0c4.6,0,9.3,0,13.9,0c0.1,0,0.3,0,0.4,0
	c0.4,0.1,0.7,0.5,0.7,0.9c0,0.3-0.2,0.8-0.7,0.9c-0.1,0-0.1,0-0.2,0c-0.1,0-0.2,0-0.3,0C28.8,15.6,26.5,15.6,24.2,15.6z"/>
<path style="fill:none;stroke:#B22222;stroke-miterlimit:10;" d="M24.2,21c-2.3,0-4.6,0-6.9,0c-0.1,0-0.2,0-0.3,0
	c-0.5,0-0.8-0.4-0.9-0.8c-0.1-0.5,0.2-0.9,0.6-1c0.1,0,0.2,0,0.3-0.1c0,0,0.1,0,0.1,0c4.6,0,9.3,0,13.9,0c0.1,0,0.3,0,0.4,0
	c0.4,0.1,0.7,0.5,0.7,0.9c0,0.4-0.3,0.8-0.7,0.9c-0.1,0-0.1,0-0.2,0c-0.1,0-0.2,0-0.3,0C28.8,21,26.5,21,24.2,21z"/>
<path style="fill:none;stroke:#B22222;stroke-miterlimit:10;" d="M24.2,36.9c0.8,0,1.7,0.6,1.7,1.7c0,1-0.8,1.7-1.6,1.7
	c-0.9,0-1.7-0.7-1.7-1.7C22.5,37.5,23.4,36.9,24.2,36.9z"/>
</svg>
