<?xml version="1.0" encoding="iso-8859-1"?>
<!-- Generator: Adobe Illustrator 26.0.3, SVG Export Plug-In . SVG Version: 6.00 Build 0)  -->
<svg version="1.1" baseProfile="basic" id="Capa_1" xmlns="http://www.w3.org/2000/svg" xmlns:xlink="http://www.w3.org/1999/xlink"
	 x="0px" y="0px" viewBox="0 0 595.3 841.9" xml:space="preserve">
<path style="fill:none;stroke:#B22223;stroke-miterlimit:10;" d="M243.1,292.6c0-6.2,0-12.5,0-18.7c0-0.5,0-0.9,0-1.4
	c0-0.3,0-0.5-0.1-0.8c-0.3-1.1-1.1-1.8-2.2-2c-0.2-0.1-0.5-0.1-0.7-0.1c-6,0-12.1,0-18.1,0c-0.1,0-0.1,0-0.2,0c-0.2,0-0.4,0-0.6,0.1
	c-1,0.2-1.8,0.9-2.1,1.8c-0.1,0.4-0.2,0.7-0.2,1.1c0,13.3,0,26.5,0,39.8c0,0.1,0,0.1,0,0.2c0,0.3,0,0.5,0.1,0.8
	c0.3,1.2,1.5,2.1,2.8,2.1c1,0,2,0,3.1,0c5.1,0,10.2,0,15.3,0c0.2,0,0.5,0,0.7-0.1c1.1-0.3,1.8-0.9,2.2-1.9c0.1-0.3,0.1-0.6,0.1-1
	C243.1,305.9,243.1,299.2,243.1,292.6z"/>
<path style="fill:none;stroke:#B22223;stroke-miterlimit:10;" d="M243.1,292.6c0,6.6,0,13.3,0,19.9c0,0.3,0,0.7-0.1,1
	c-0.4,1-1.1,1.7-2.2,1.9c-0.2,0.1-0.4,0.1-0.7,0.1c-5.1,0-10.2,0-15.3,0c-1,0-2,0-3.1,0c-1.3,0-2.4-0.9-2.8-2.1
	c-0.1-0.2-0.1-0.5-0.1-0.8c0-0.1,0-0.1,0-0.2c0-13.3,0-26.5,0-39.8c0-0.4,0-0.8,0.2-1.1c0.4-1,1.1-1.6,2.1-1.8c0.2,0,0.4,0,0.6-0.1
	c0.1,0,0.1,0,0.2,0c6,0,12.1,0,18.1,0c0.2,0,0.5,0,0.7,0.1c1.1,0.3,1.9,0.9,2.2,2c0.1,0.2,0.1,0.5,0.1,0.8c0,0.5,0,0.9,0,1.4
	C243.1,280.1,243.1,286.4,243.1,292.6z M220.8,292.6c0,6.6,0,13.2,0,19.8c0,0.1,0,0.2,0,0.3c0,0.3,0.3,0.7,0.7,0.8
	c0.1,0,0.3,0,0.4,0c5.3,0,10.6,0,15.9,0c0.7,0,1.5,0,2.2,0c0.1,0,0.2,0,0.3,0c0.4-0.1,0.6-0.3,0.7-0.7c0-0.1,0-0.2,0-0.3
	c0-13.3,0-26.5,0-39.8c0-0.1,0-0.1,0-0.2c0-0.5-0.4-0.9-1-0.9c-0.1,0-0.1,0-0.2,0c-6,0-12.1,0-18.1,0c-0.1,0-0.2,0-0.2,0
	c-0.4,0-0.9,0.4-0.9,0.8c0,0.1,0,0.2,0,0.3C220.8,279.4,220.8,286,220.8,292.6z"/>
<path style="fill:none;stroke:#B22223;stroke-miterlimit:10;" d="M220.8,292.6c0-6.6,0-13.2,0-19.8c0-0.1,0-0.2,0-0.3
	c0-0.5,0.4-0.8,0.9-0.8c0.1,0,0.2,0,0.2,0c6,0,12.1,0,18.1,0c0.1,0,0.1,0,0.2,0c0.5,0,0.9,0.4,1,0.9c0,0.1,0,0.1,0,0.2
	c0,13.3,0,26.5,0,39.8c0,0.1,0,0.2,0,0.3c-0.1,0.4-0.3,0.6-0.7,0.7c-0.1,0-0.2,0-0.3,0c-0.7,0-1.5,0-2.2,0c-5.3,0-10.6,0-15.9,0
	c-0.1,0-0.3,0-0.4,0c-0.5-0.1-0.7-0.5-0.7-0.8c0-0.1,0-0.2,0-0.3C220.8,305.8,220.8,299.2,220.8,292.6z M230.9,302.5
	c-2,0-3.6,1.7-3.6,3.6c0,1.9,1.6,3.6,3.6,3.6c2,0,3.6-1.6,3.6-3.6C234.5,304.1,232.9,302.5,230.9,302.5z M230.9,277.8
	c1.3,0,2.7,0,4,0c1,0,2.1,0,3.1,0c0.1,0,0.2,0,0.3,0c0.4-0.1,0.7-0.5,0.7-0.9c0-0.5-0.3-0.8-0.7-1c-0.1,0-0.3,0-0.4,0
	c-4.7,0-9.3,0-14,0c-0.1,0-0.1,0-0.2,0c0,0-0.1,0-0.1,0c-0.4,0.1-0.7,0.4-0.8,0.8c0,0.5,0.2,0.9,0.6,1c0.1,0.1,0.3,0.1,0.4,0.1
	C226.3,277.8,228.6,277.8,230.9,277.8z M230.9,283.1c2.3,0,4.6,0,6.9,0c0.1,0,0.2,0,0.3,0c0.1,0,0.1,0,0.2,0
	c0.5-0.1,0.7-0.6,0.7-0.9c0-0.5-0.3-0.8-0.7-0.9c-0.1,0-0.3,0-0.4,0c-4.6,0-9.3,0-13.9,0c-0.1,0-0.1,0-0.2,0c-0.1,0-0.2,0-0.3,0.1
	c-0.4,0.1-0.7,0.6-0.6,1.1c0.1,0.4,0.5,0.8,0.9,0.8c0.1,0,0.2,0,0.3,0C226.3,283.1,228.6,283.1,230.9,283.1z M231,288.5
	c2.3,0,4.6,0,6.9,0c0.1,0,0.2,0,0.3,0c0.1,0,0.1,0,0.2,0c0.4-0.1,0.7-0.5,0.7-0.9c0-0.4-0.3-0.8-0.7-0.9c-0.1,0-0.3,0-0.4,0
	c-4.6,0-9.3,0-13.9,0c0,0-0.1,0-0.1,0c-0.1,0-0.2,0-0.3,0.1c-0.4,0.1-0.7,0.6-0.6,1c0.1,0.4,0.4,0.8,0.9,0.8c0.1,0,0.2,0,0.3,0
	C226.3,288.5,228.7,288.5,231,288.5z"/>
<path style="fill:none;stroke:#B22223;stroke-miterlimit:10;" d="M230.9,302.5c2,0,3.6,1.6,3.6,3.6c0,2-1.6,3.6-3.6,3.6
	c-2,0-3.6-1.6-3.6-3.6C227.3,304.2,228.9,302.5,230.9,302.5z M230.9,304.4c-0.8,0-1.7,0.6-1.7,1.7c0,1,0.8,1.7,1.7,1.7
	c0.9,0,1.7-0.7,1.6-1.7C232.6,305.1,231.8,304.4,230.9,304.4z"/>
<path style="fill:none;stroke:#B22223;stroke-miterlimit:10;" d="M230.9,277.8c-2.3,0-4.7,0-7,0c-0.1,0-0.3,0-0.4-0.1
	c-0.4-0.1-0.7-0.5-0.6-1c0-0.4,0.4-0.8,0.8-0.8c0,0,0.1,0,0.1,0c0.1,0,0.1,0,0.2,0c4.7,0,9.3,0,14,0c0.1,0,0.3,0,0.4,0
	c0.4,0.1,0.7,0.5,0.7,1c0,0.4-0.3,0.8-0.7,0.9c-0.1,0-0.2,0-0.3,0c-1,0-2.1,0-3.1,0C233.6,277.8,232.3,277.8,230.9,277.8z"/>
<path style="fill:none;stroke:#B22223;stroke-miterlimit:10;" d="M230.9,283.1c-2.3,0-4.6,0-6.9,0c-0.1,0-0.2,0-0.3,0
	c-0.5,0-0.8-0.4-0.9-0.8c-0.1-0.5,0.2-0.9,0.6-1.1c0.1,0,0.2,0,0.3-0.1c0.1,0,0.1,0,0.2,0c4.6,0,9.3,0,13.9,0c0.1,0,0.3,0,0.4,0
	c0.4,0.1,0.7,0.5,0.7,0.9c0,0.3-0.2,0.8-0.7,0.9c-0.1,0-0.1,0-0.2,0c-0.1,0-0.2,0-0.3,0C235.5,283.1,233.2,283.1,230.9,283.1z"/>
<path style="fill:none;stroke:#B22223;stroke-miterlimit:10;" d="M231,288.5c-2.3,0-4.6,0-6.9,0c-0.1,0-0.2,0-0.3,0
	c-0.5,0-0.8-0.4-0.9-0.8c-0.1-0.5,0.2-0.9,0.6-1c0.1,0,0.2,0,0.3-0.1c0,0,0.1,0,0.1,0c4.6,0,9.3,0,13.9,0c0.1,0,0.3,0,0.4,0
	c0.4,0.1,0.7,0.5,0.7,0.9c0,0.4-0.3,0.8-0.7,0.9c-0.1,0-0.1,0-0.2,0c-0.1,0-0.2,0-0.3,0C235.5,288.5,233.3,288.5,231,288.5z"/>
<path style="fill:none;stroke:#B22223;stroke-miterlimit:10;" d="M230.9,304.4c0.8,0,1.7,0.6,1.7,1.7c0,1-0.8,1.7-1.6,1.7
	c-0.9,0-1.7-0.7-1.7-1.7C229.3,305.1,230.1,304.4,230.9,304.4z"/>
</svg>
