<svg xmlns="http://www.w3.org/2000/svg" viewBox="0 0 25.23 46.82"><defs><style>.fb299c32-500b-42e5-98aa-6db1e5d1b202{fill:none;stroke:#b22223;stroke-miterlimit:10;}</style></defs><g id="b4ccf79a-d515-43db-9796-a9075b86112a" data-name="Capa 2"><g id="ea44138c-bf46-4737-bf16-8e83c9a97375" data-name="Capa 1"><path class="fb299c32-500b-42e5-98aa-6db1e5d1b202" d="M24.72,23.42V4.74c0-.46,0-.92,0-1.38a2.45,2.45,0,0,0-.11-.76,2.8,2.8,0,0,0-2.2-2A3.08,3.08,0,0,0,21.68.5H3.36a2.57,2.57,0,0,0-.55.06A2.84,2.84,0,0,0,.67,2.4,3.28,3.28,0,0,0,.5,3.52V43.46a3.24,3.24,0,0,0,.11.76,2.86,2.86,0,0,0,2.76,2.1H21.75a3,3,0,0,0,.67,0,2.87,2.87,0,0,0,2.17-1.94,3,3,0,0,0,.14-1Q24.71,33.38,24.72,23.42Z"/><path class="fb299c32-500b-42e5-98aa-6db1e5d1b202" d="M24.72,23.42q0,10,0,19.92a3,3,0,0,1-.14,1,2.87,2.87,0,0,1-2.17,1.94,3,3,0,0,1-.67,0H3.37a2.86,2.86,0,0,1-2.76-2.1,3.24,3.24,0,0,1-.11-.76V3.52A3.28,3.28,0,0,1,.67,2.4,2.84,2.84,0,0,1,2.81.56,2.57,2.57,0,0,1,3.36.5H21.68a3.08,3.08,0,0,1,.74.06,2.8,2.8,0,0,1,2.2,2,2.45,2.45,0,0,1,.11.76c0,.46,0,.92,0,1.38Zm-22.29,0V43.25c0,.1,0,.2,0,.3a.91.91,0,0,0,.74.82,1.84,1.84,0,0,0,.41,0h18.1a1.34,1.34,0,0,0,.35,0,.87.87,0,0,0,.73-.72,1.31,1.31,0,0,0,0-.34V3.51a.85.85,0,0,0,0-.16.94.94,0,0,0-1-.93H3.34a1,1,0,0,0-.9.85c0,.1,0,.2,0,.3Z"/><path class="fb299c32-500b-42e5-98aa-6db1e5d1b202" d="M2.43,23.42V3.57c0-.1,0-.2,0-.3a1,1,0,0,1,.9-.85h18.5a.94.94,0,0,1,1,.93.85.85,0,0,1,0,.16v39.8a1.31,1.31,0,0,1,0,.34.87.87,0,0,1-.73.72,1.34,1.34,0,0,1-.35,0H3.59a1.84,1.84,0,0,1-.41,0,.91.91,0,0,1-.74-.82c0-.1,0-.2,0-.3Zm10.18,9.93A3.59,3.59,0,1,0,16.19,37,3.58,3.58,0,0,0,12.61,33.35Zm0-24.77h7.06a1.32,1.32,0,0,0,.28,0,1,1,0,0,0,.74-.9.94.94,0,0,0-.67-1,1.2,1.2,0,0,0-.42,0H5.34a1,1,0,0,0-.79.84,1,1,0,0,0,.63,1,1.13,1.13,0,0,0,.41.05Zm0,5.36h7.2l.16,0a1,1,0,0,0,0-1.85,1.43,1.43,0,0,0-.41,0H5.49a1.57,1.57,0,0,0-.3.05,1,1,0,0,0,.27,1.86h7.15Zm0,5.37h7.18a.57.57,0,0,0,.18,0,1,1,0,0,0,0-1.84,1.29,1.29,0,0,0-.39,0H5.65a.65.65,0,0,0-.14,0,1.92,1.92,0,0,0-.32.05,1,1,0,0,0-.64,1,1,1,0,0,0,.88.82h7.2Z"/><path class="fb299c32-500b-42e5-98aa-6db1e5d1b202" d="M12.61,33.35A3.59,3.59,0,1,1,9,36.93,3.58,3.58,0,0,1,12.61,33.35Zm0,1.92a1.64,1.64,0,0,0-1.66,1.65,1.67,1.67,0,1,0,1.66-1.65Z"/><path class="fb299c32-500b-42e5-98aa-6db1e5d1b202" d="M12.6,8.58h-7a1.13,1.13,0,0,1-.41-.05,1,1,0,0,1-.63-1,1,1,0,0,1,.79-.84H19.59a1.2,1.2,0,0,1,.42,0,.94.94,0,0,1,.67,1,1,1,0,0,1-.74.9,1.32,1.32,0,0,1-.28,0H12.6Z"/><path class="fb299c32-500b-42e5-98aa-6db1e5d1b202" d="M12.61,13.94H5.46a1,1,0,0,1-.27-1.86,1.57,1.57,0,0,1,.3-.05h14.1a1.43,1.43,0,0,1,.41,0,1,1,0,0,1,0,1.85l-.16,0h-7.2Z"/><path class="fb299c32-500b-42e5-98aa-6db1e5d1b202" d="M12.63,19.31H5.43a1,1,0,0,1-.88-.82,1,1,0,0,1,.64-1,1.92,1.92,0,0,1,.32-.05.65.65,0,0,1,.14,0H19.59a1.29,1.29,0,0,1,.39,0,1,1,0,0,1,0,1.84.57.57,0,0,1-.18,0H12.63Z"/><path class="fb299c32-500b-42e5-98aa-6db1e5d1b202" d="M12.6,35.27a1.66,1.66,0,1,1-1.66,1.65A1.65,1.65,0,0,1,12.6,35.27Z"/></g></g></svg>